<svg version="1.1" id="Layer_1" xmlns="http://www.w3.org/2000/svg" xmlns:xlink="http://www.w3.org/1999/xlink" x="0px" y="0px"
	 viewBox="0 0 1400 900" style="enable-background:new 0 0 1400 900;" xml:space="preserve">
<style type="text/css">
	.st0{fill:#FFFFFF;fill-opacity:0;}
	.st1{fill:#020047;}
	.st2{fill:#1E00FF;}
	.st3{filter:url(#Adobe_OpacityMaskFilter);}
	.st4{fill:#FFFFFF;}
	.st5{mask:url(#mask-2);}
	.st6{fill:#0F00CA;}
	.st7{fill:#104EFF;}
	.st8{fill:#1600FF;}
	.st9{fill:#2A2E49;}
	.st10{fill:#48BEFF;}
	.st11{fill:#109DFF;}
</style>
<g id="Page-1">
	<g id="_x31_440x" transform="translate(-40.000000, 0.000000)">
		<g id="Group-10" transform="translate(40.000000, 0.000000)">
			<g id="header_1_">
				<g id="Group-2">
					<rect id="Rectangle-11" y="0" class="st0" width="1400" height="900"/>
					<g id="header">
						<polygon id="Rectangle-10" class="st1" points="0,0 489.1,0 680.7,406 0,406 						"/>
						<g id="Combined-Shape">
							<g id="Group-6-Clipped">
								<g id="Mask">
									<path id="path-1_1_" class="st2" d="M1400,0c0,59.2,0,103.7,0,133.7c0,180.3-42.8,380.1-116.9,497.4
										c-92.5,146.5-219.2,236.5-427.7,257.6c-78.7,8-146.6,11.4-203.8,10.4c-17.1,0.3-34.3-0.3-51.6-1.8
										C405.2,880,226,850.7,85.7,691.4C-2.5,591.1-9.9,432.6,8,366.1c5.3-18.7,10.6-32.3,16.3-41.3
										c25.8-40.5,49.4-58.3,91.6-62.4c51.8-5,87.2-19.5,121.2-48.3s51.9-83.5,69.8-122.8c2.3-4.6,4.7-9.2,7.4-13.6
										c9.9-14.4,24.7-27.7,36.4-35.3c33-21.5,141.8-31.9,141.8-32.6c0-6.6-5.4-9.9-5.4-9.9H1400z"/>
								</g>
								<defs>
									<filter id="Adobe_OpacityMaskFilter" filterUnits="userSpaceOnUse" x="-69.2" y="4.1" width="576" height="952.2">
										<feColorMatrix  type="matrix" values="1 0 0 0 0  0 1 0 0 0  0 0 1 0 0  0 0 0 1 0"/>
									</filter>
								</defs>
								<mask maskUnits="userSpaceOnUse" x="-69.2" y="4.1" width="576" height="952.2" id="mask-2">
									<g class="st3">
										<path id="path-1" class="st4" d="M1400,0c0,59.2,0,103.7,0,133.7c0,180.3-42.8,380.1-116.9,497.4
											c-92.5,146.5-219.2,236.5-427.7,257.6c-78.7,8-146.6,11.4-203.8,10.4c-17.1,0.3-34.3-0.3-51.6-1.8
											C405.2,880,226,850.7,85.7,691.4C-2.5,591.1-9.9,432.6,8,366.1c5.3-18.7,10.6-32.3,16.3-41.3
											c25.8-40.5,49.4-58.3,91.6-62.4c51.8-5,87.2-19.5,121.2-48.3s51.9-83.5,69.8-122.8c2.3-4.6,4.7-9.2,7.4-13.6
											c9.9-14.4,24.7-27.7,36.4-35.3c33-21.5,141.8-31.9,141.8-32.6c0-6.6-5.4-9.9-5.4-9.9H1400z"/>
									</g>
								</mask>
								<g id="Group-6" class="st5">
									<g transform="translate(-70.000000, 2.915217)">
										<g transform="translate(0.730394, 0.898474)">
											<g id="Group">
												<g>
													<path id="Shape" class="st1" d="M385.1,560.9c-7.4,16.2-17.8,30.9-30.4,43.4c15.2-30.3,11.6-55,5.7-71.8
														c-8.3-23.5-29.5-52-45.7-70.7c-38-44-59.2-78.7-69.5-107.3c-0.1-0.3-0.2-0.6-0.3-0.9c-0.3-0.8-0.5-1.5-0.8-2.3
														c-0.1-0.3-0.2-0.5-0.3-0.8c-0.1-0.4-0.2-0.7-0.4-1.1s-0.2-0.7-0.3-1c-0.4-1.4-0.8-2.7-1.2-4c-0.1-0.3-0.2-0.6-0.3-0.9
														c-0.3-1-0.5-2-0.8-3c-0.1-0.5-0.3-1.1-0.4-1.6c-0.1-0.4-0.2-0.8-0.3-1.2c-0.1-0.3-0.1-0.6-0.2-0.9c0-0.1,0-0.2-0.1-0.3
														c-0.1-0.4-0.2-0.9-0.3-1.3c0-0.1,0-0.2-0.1-0.3c-0.1-0.6-0.2-1.1-0.3-1.7c0-0.1,0-0.1,0-0.2c0-0.3-0.1-0.5-0.1-0.8
														c-0.2-1-0.4-2-0.5-3c0-0.2-0.1-0.5-0.1-0.7c-0.1-0.4-0.1-0.8-0.2-1.3c0-0.3-0.1-0.6-0.1-0.8c0-0.3-0.1-0.6-0.1-0.8
														c0-0.2-0.1-0.4-0.1-0.6c0-0.3-0.1-0.6-0.1-0.9c0-0.2,0-0.5-0.1-0.7c0-0.2-0.1-0.5-0.1-0.8c0-0.4-0.1-0.7-0.1-1.1
														c0-0.2,0-0.3,0-0.5s0-0.4,0-0.6c0-0.2,0-0.4,0-0.7c0-0.3,0-0.6-0.1-0.9c0-0.4,0-0.8-0.1-1.2c0-0.3,0-0.5,0-0.8
														c0-0.2,0-0.4,0-0.6c0,0,0-0.1,0-0.1c0-0.3,0-0.6,0-0.8c0-0.4,0-0.8,0-1.2v0c0-0.4,0-0.8,0-1.2
														c0-21.4,12.4-48.8,21.5-59.6c0,0,6.1-9.3,18-17.8c0.3-0.2,0.7-0.5,1-0.7c0.9-0.6,1.7-1.2,2.7-1.8
														c7.8-4.9,17.7-9.2,29.6-10.7c13.1-1.6,22.6,2.7,30.8,9.1c6.4,5,12,11.3,17.9,17.2c0.7,0.6,1.3,1.2,2,1.7
														c-15.8,28.6-25.6,60.1-20.1,91.8c6.8,39,35.2,70.5,48.8,107.7C402.4,485.7,400.8,526.4,385.1,560.9z"/>
													<path id="Shape_1_" class="st6" d="M284.4,703.5c-20.7,33-29.3,71.7-29.2,110.7c0.1,18.8-7.4,48.7,33.5,138.3
														C240.3,920.8,195,884.6,155,843l-0.6-0.6c-5.1-5.3-10.1-10.7-15.1-16.2c-2.8-3.1-5.6-6.3-8.3-9.5
														c-23.5-27.3-44.6-56.7-62.7-87.8c-2.1-3.6-4.1-7.2-6.1-10.8c-6.1-11-11.8-22.2-17-33.6c-1.2-2.6-2.4-5.3-3.6-8
														c-5.2-11.8-10-23.8-14.3-36c-1.2-3.4-2.4-6.8-3.5-10.3c-3.8-11.6-7.1-23.4-10-35.3c-0.5-2.2-1-4.3-1.5-6.5
														c-0.3-1.5-0.7-3-1-4.6c-4.7-21.6-8-43.6-9.8-65.7c-0.3-4.1-0.6-8.2-0.8-12.3c-1.8-34.1,0.4-67.6,7.2-99.5
														c0.8-3.8,1.7-7.7,2.6-11.4c1.9-7.6,4.1-15.1,6.5-22.4c1.3-4,2.7-7.9,4.2-11.9c2.8-7.4,5.9-14.6,9.3-21.8
														c1.6-3.3,3.2-6.5,4.9-9.8c1.9-3.6,3.8-7.1,5.8-10.5c9.7-16.6,22.9-29,38.7-38.1c3.3-1.9,6.7-3.6,10.2-5.2
														c7.5-3.4,15.2-6.2,23.2-8.4c11.4-3.1,23.1-4.4,34.8-5.3c5.3,14.7,12.8,28.5,22.3,41c2.5,3.3,5.2,6.5,8,9.6
														c6.1,6.7,12.8,12.9,20,18.4c0.7,0.5,1.4,1.1,2.1,1.6c13.6,9.9,28.7,17.5,44.8,22.3c10.2,28.5,31.5,63.2,69.5,107.3
														c16.1,18.7,37.4,47.2,45.7,70.7c7.8,22,11.5,57.7-26,101.8C324.3,646,303.1,673.5,284.4,703.5z"/>
													<path id="Shape_2_" class="st1" d="M576.1,52.6c-0.1,42.2-19.8,70.5-64,97.5c-16.7,10.2-32.5,17.2-45.7,21.5L479.6,0.3
														h80.6C569.9,13.5,576.1,31.3,576.1,52.6z"/>
													<path id="Shape_3_" class="st7" d="M485.5,138.6c-2.5,2.3-5.2,4.4-8,6.3c-2.3,1.6-4.3,2.6-5.8,5.1
														c-0.6,1.1-1.1,2.3-1.4,3.6c-0.6,2.4-0.2,4.8-0.2,7.3c-0.2,13.7,1.1,18.6,0.9,33.7c-0.1,3.9-0.6,8.6-6.2,11.7
														c-0.8,0.4-1.7,0.7-2.6,0.8c-5.4,0.7-11.9-3.8-17.3-2.9l-0.1,0c-0.3,0.1-0.6,0.1-1,0.2c-2.9,0.9-5.1,4.6-6.2,7.1
														c-1,2.3-1.7,4.8-1.9,7.3c0,0,0,0.1,0,0.1v0.1c-0.2,2.2-0.5,4.1-2.4,5.6c-2.7,2.1-5.8,2.3-10.2,1.4l-0.6-0.1
														c-0.7-0.2-1.4-0.3-2-0.4c-1.7-0.4-3.4-1-5-1.6c0.6,1.1,3.2,5,4,5.9c0.4,0.5,0.8,1,1.1,1.6l0.1,0.1
														c2.4,4.3,0.9,8.3-2,10c-2.7,1.6-5.4,1.6-6.9,1.7c-0.8,0.1-2.5,0.2-2.7,0.3h0c-1,0.2-1.9,0.5-2.7,1
														c-0.2,0.1-0.5,0.3-0.7,0.5c-2.1,1.5-2.9,4.1-3.4,6.6c-0.1,0.3-0.1,0.7-0.2,1c-0.4,1.3-0.6,2.2-0.7,2.5c0,0,0,0,0,0
														c-3.4,9.8-11.7,10.2-14.2,10.2c-5.2,0-10.2-2.3-16-6.4c-0.5-0.3-1-0.7-1.4-1c-2-1.5-4.2-3.2-6.4-5.2
														c-1.5-1.2-3-2.6-4.5-3.9c-6-5.9-11.6-12.2-17.9-17.2c-8.2-6.5-17.6-10.8-30.8-9.1c-11.9,1.5-21.8,5.8-29.6,10.7
														c-0.9,0.6-1.8,1.2-2.7,1.8c-0.3,0.2-0.7,0.5-1,0.7c-11.9,8.5-18,17.8-18,17.8c-3,3.6-6.4,8.9-9.5,15.2
														c-6.4,13-12,30-12,44.4c0,0.4,0,0.8,0,1.2v0c0,0.4,0,0.8,0,1.2c0,0.3,0,0.6,0,0.8c0,0,0,0.1,0,0.1c0,0.2,0,0.4,0,0.6
														c0,0.3,0,0.5,0,0.8c0,0.4,0,0.8,0.1,1.2c0,0.3,0,0.6,0.1,0.9c0,0.2,0,0.4,0,0.7c0,0.2,0,0.4,0,0.6c0,0.2,0,0.3,0,0.5
														c0,0.4,0.1,0.7,0.1,1.1c0,0.3,0,0.5,0.1,0.8c0,0.3,0,0.5,0.1,0.7c0,0.3,0.1,0.6,0.1,0.9c0,0.2,0,0.4,0.1,0.6
														c0,0.3,0.1,0.5,0.1,0.8c0,0.3,0.1,0.6,0.1,0.8c0.1,0.4,0.1,0.8,0.2,1.3c0,0.2,0.1,0.5,0.1,0.7c0.2,1,0.3,2,0.5,3
														c0,0.3,0.1,0.5,0.1,0.8c0,0.1,0,0.1,0,0.2c0.1,0.6,0.2,1.1,0.3,1.7c0,0.1,0,0.2,0.1,0.3c0.1,0.4,0.2,0.9,0.3,1.3
														c0,0.1,0,0.2,0.1,0.3c0.1,0.3,0.1,0.6,0.2,0.9c0.1,0.4,0.2,0.8,0.3,1.2c0.1,0.5,0.3,1.1,0.4,1.6c0.2,1,0.5,2,0.8,3
														c0.1,0.3,0.2,0.6,0.3,0.9c0.4,1.3,0.8,2.7,1.2,4c0.1,0.3,0.2,0.7,0.3,1c0.1,0.3,0.2,0.7,0.4,1.1
														c0.1,0.3,0.2,0.5,0.3,0.8c0.3,0.8,0.5,1.5,0.8,2.3c0.1,0.3,0.2,0.6,0.3,0.9c-16.1-4.9-31.2-12.4-44.8-22.3
														c-0.7-0.5-1.4-1-2.1-1.6c-23-17.5-40.6-41.8-50.3-68.9c12.4-0.9,24.8-1.4,37.1-3c42.8-5.8,84.6-18.7,118.1-45.8
														c1-0.8,2.1-1.7,3.1-2.5c3.2-2.7,6.3-5.6,9.1-8.7c28.2-30.1,44.4-78.4,60.7-114c2.3-4.6,4.7-9.2,7.4-13.6
														c9.9-14.4,24.7-27.7,36.4-35.3c28.7-18.8,62.4-24.6,81.5-23.6c0,0,0,0.1,0.1,0.1c3.9,6.3,7.2,12.5,9.8,19.1
														c2.5,6.2,4.4,12.6,5.7,19.1C522.4,79.7,508.7,117.5,485.5,138.6z"/>
													<path id="Shape_4_" class="st1" d="M443.9,194.3c0,0,7.3,0.5,10.6,1.7c1,0.4,3.2,1.5,3.6,3.4c0.2,1,0.1,2.3-0.7,3
														c-0.6,0.5-1.5,0.4-2.2,0.2c-2.1-0.7-3.7-2.3-5.3-3.8C448.1,197.2,446.1,195.7,443.9,194.3z"/>
													<path id="Shape_5_" class="st1" d="M440.9,199.8c-3.2-1.8-6.6-3.7-9-6.6c-0.9-1.1-1.7-2.3-2-3.6
														c-0.6-2.5-0.3-6,3.4-8.8c1.5-1.1,4.1-1.9,6.5-1.9c-7,3.9-6.5,9.7-5.7,12.4C434.7,193.7,438.6,198.6,440.9,199.8z"/>
													<path id="Shape_6_" class="st8" d="M442.4,123.9c-0.2-0.1-0.4-0.2-0.6-0.2C442,123.7,442.2,123.8,442.4,123.9
														L442.4,123.9z"/>
													<path id="Shape_7_" class="st8" d="M457.7,138.9c-1.2,2-5.6,4.5-9.3,4c-4.3-0.6-6.4-3.1-8.3-7.2
														c-1.8-3.9-3.6-11-3.8-16c0.7,0.8,1.4,1.5,2.3,2.1c0.1,0.1,0.3,0.2,0.4,0.3c2.5,5.3,8.6,14.6,14.1,16.7h0
														c1.2,0.4,2.4,0.5,3.6,0.3C457.1,139,457.4,139,457.7,138.9L457.7,138.9z"/>
													<path id="Shape_8_" class="st9" d="M477.2,116.5l-0.1-0.1c-0.1-0.1-0.3,0-0.3,0.1s0,0.3,0.1,0.3l0.1,0.1
														c0.1,0.1,0.3,0,0.3-0.1C477.3,116.8,477.3,116.6,477.2,116.5z"/>
													<path id="Shape_9_" class="st1" d="M422.5,226c-2.4-0.4-4.7-1.1-6.9-2.1c0.6,1.1,1.2,2,1.9,3c-4.1-3.5-8.5-6.7-12.7-10
														c-0.5-0.4-1.1-0.9-1.2-1.6c-0.2-0.8,0.3-1.6,1.1-1.8c0.7-0.2,1.4,0.1,1.6,0.5c1.8,2,3.9,3.7,6.2,5
														c2.1,1.2,4.1,2.1,6.1,3.4c1.9,1.2,3.4,2.4,4.5,3.7C422.9,226.1,422.7,226,422.5,226z"/>
													<path id="Shape_10_" class="st10" d="M466.1,129.6c0,0.1,0,0.1,0,0.2c-0.1,0.5-0.2,1.1-0.4,1.6l0,0.1
														c-1.4,3.9-4.8,6.8-8.9,7.7c-1.2,0.2-2.5,0.1-3.6-0.3h0c-5.6-2.2-11.7-11.5-14.1-16.7c2.4,1.6,5.2,2.5,8.1,3.2
														c3.6,0.9,7.3,1.6,11.1,1.9l0.3,0c1.7,0.2,3.5,0.3,5.1,1c0.9,0.4,1.7,0.9,2.5,1.5L466.1,129.6z"/>
													<path id="Shape_11_" class="st1" d="M466.1,129.7c-0.1,0.5-0.2,1.1-0.4,1.6l0,0.1c-1.4,3.9-4.8,6.8-8.9,7.7
														c-1.2,0.2-2.8,0.3-3.6-0.3h0c-2.3-1.8-0.4-7.1,2.7-10c0.6-0.6,1.7-1.3,2.7-1.6c1.7,0.2,3.5,0.3,5.1,1
														C464.5,128.6,465.3,129.1,466.1,129.7z"/>
													<path id="Shape_12_" class="st1" d="M433.5,95c0,0-0.4,1.8,6,3.5c4.3,1.2,7.9,1.5,12,2.1c3.3,0.5,6.8,1.1,9.7,2.9
														c2.3,1.4,4.2,3.5,5.9,5.6c4.4,5.2,7.7,9.3,11.8,14.6c0.8,1,2.3,1.9,3.7,1.4c2.2-1,3.4-1.5,5.3-2.9
														c0.7-0.5,1.6-1.5,1.8-2.3c0.2-1.4-0.5-2.3-1.3-3.3c-6.1-7.2-13-13-20.6-18.5c-1.7-1.2-3.4-2.4-5.4-3
														c-2-0.7-5-0.9-7.1-1C447.8,94,433.8,93.5,433.5,95z"/>
													<path id="Shape_13_" d="M457.6,130.6c-1.5,1.6-3.5,4-2.5,5.7c0.5,1,2.4,0.9,3.6,0.2c1.9-1.1,2.9-1.9,3.9-3.8
														c0.4-0.7,1.1-2.8-0.9-3.5C460.4,128.7,458.8,129.3,457.6,130.6z"/>
													<path id="Shape_14_" class="st10" d="M459.8,130.5c-1.1,0.2-2.2,1.3-2.5,2.6c-0.1,0.3-0.1,0.8,0.3,1.1
														c0.4,0.3,1.1,0.2,1.5,0c0.6-0.3,1.1-0.7,1.5-1.2c0.3-0.4,0.7-0.8,0.6-1.5C461.1,130.9,460.6,130.4,459.8,130.5z"/>
													<path id="Shape_15_" class="st8" d="M466.6,123.9c-2.2-1.6-1.1-3.7-3.6-5.9c-0.8-0.7-3-1.4-5.6-1.3
														c-4.9,0.2-5.3,0.9-9.7,0.8c-1.9,0-3.7-1.5-4.2-2.4c6.5,1,8.6-2.3,15.1-1.5C465.7,114.4,465.6,119.2,466.6,123.9z"/>
													<path id="Shape_16_" class="st1" d="M477,132.2c1.6-0.7,2.8-1.6,3.3-2.6c-3.5-0.1-7-1.6-9-4.5
														c-0.7-1.1-1.1-2.5-2.1-3.4c-0.8-0.8-2-1-3.1-1.2c-7.9-1.2-14.2,1.5-23-1.6c-3.7-1.3-6.8-2.5-9.5-5.1
														c-0.2,2.6,2.4,6.3,4.9,8.1c2.5,1.8,5.5,2.7,8.5,3.5c3.6,0.9,7.3,1.6,11.1,1.9c1.8,0.2,3.7,0.3,5.4,1
														c1.9,0.8,2.6,1.7,4.4,2.7C470.7,132.3,474.5,133,477,132.2z"/>
													<path id="Shape_17_" class="st1" d="M439.4,122.4c-0.1-0.1-0.3-0.2-0.4-0.2C439.1,122.2,439.3,122.3,439.4,122.4z"/>
													<path id="Shape_18_" class="st1" d="M466.1,129.6c0,0.1,0,0.1,0,0.2L466.1,129.6z"/>
													<path id="Shape_19_" class="st10" d="M508.8,85.3c5.1-21.5,5.1-43.3,2.6-51.1c2.5,6.2,4.4,12.6,5.7,19.1
														c5.3,26.4-8.5,64.2-31.6,85.3C497.1,123.6,505.1,101,508.8,85.3z"/>
													<path id="Shape_20_" class="st10" d="M464.8,206.3c-0.8,0.4-1.7,0.7-2.6,0.8c2.3-1.6,3.8-4.1,4.5-7.3
														c0.7-3.4,0.4-8.1,0.3-11.6c-0.1-3.6-0.2-7.1-0.3-10.7c-0.1-5-0.3-10,0.5-14.9c0.7-4.5,2-8.9,4.6-12.6
														c-0.6,1.1-1.1,2.3-1.4,3.6c-0.6,2.4-0.2,4.8-0.2,7.3c-0.2,13.7,1.1,18.6,0.9,33.7C471,198.6,470.4,203.2,464.8,206.3z"
														/>
													<path id="Shape_21_" class="st10" d="M445.4,204.1l-0.6,0.1c-0.3,0.1-0.6,0.1-1,0.2c-2.9,0.9-5.1,4.6-6.2,7.1
														c-1,2.3-1.7,4.8-1.9,7.3c0,0,0,0.1,0,0.1v0.1c-0.2,2.2-0.5,4.1-2.4,5.6c-2.7,2.1-5.8,2.3-10.2,1.4l-0.6-0.1
														c-0.7-0.2-1.4-0.3-2-0.4l-1.3-0.3c3.9,0.9,8.5,0.2,11.8-1.6c2.4-1.3,3.6-3.4,4.7-6c0.7-2.4,0.3-4.4,0.4-6.2
														c0.1-2.6,0.8-5.2,2.2-6.9C440,202.8,442.7,202.8,445.4,204.1z"/>
													<path id="Shape_22_" class="st10" d="M418.7,241.6c-2.7,1.6-5.4,1.6-6.9,1.7c-0.8,0.1-2.5,0.2-2.7,0.3h0
														c-1,0.2-1.9,0.5-2.7,1l-1-1.1c2.7-0.2,8.1-1.4,11.2-3.1c1.5-0.8,5.3-3,4.1-8.8C423.1,235.8,421.6,239.9,418.7,241.6z"
														/>
													<path id="Shape_23_" class="st6" d="M409.2,243.5L409.2,243.5c-1.3,0.2-2.5,0.7-3.5,1.5c-2.1,1.5-2.9,4.1-3.4,6.6
														c-0.1,0.3-0.8,3-0.9,3.5c0,0,0,0,0,0c-1.5-2-2.8-5.8-3-7.5c-0.2-1.7-0.2-3.7,0.9-5c1-1.2,2.9-1.1,3.4-1
														C404.7,242.1,406.7,242.9,409.2,243.5z"/>
													<path id="Shape_24_" class="st10" d="M446.5,177.9c3.9,0.2,7.4,2.5,9,6.1c0.3-2.2-0.4-4.7-2.2-6
														C451.4,176.7,448.5,176.6,446.5,177.9"/>
													<path id="Shape_25_" class="st1" d="M333.6,151.6c2.7-14.1,19.1-20.5,33.3-22.9s30.5-4.4,38.6-16.3
														c7.5-11,2.5-30,3.1-43.3c1-20.7,7.8-38.8,29.4-52.1l0.1,11.1c-11.2,7.1-17,18.2-20.1,29.1c-3.1,10.9-1.6,21.5-1.8,32.8
														c-0.1,6.4-0.2,13.1-2.9,18.9c-5.9,12.7-20.8,17.7-37.9,20c-13.9,1.9-29.3,2.7-39.1,12.8L333.6,151.6z"/>
													<path id="Shape_26_" class="st8" d="M501.5,15.1l0.4,0l-0.3,0.1c-46,13.4-71.8,53.3-80.7,94.6
														c-2.4,10.8-3.1,22-5.7,32.8c-4.4,18.5-6,50.9-37.8,60.3c-21.6,6.4-32.3-3.9-57.5,3.5c-4.9,1.4-10.3,3.5-16.5,6.6
														c1-0.8,2.1-1.7,3.1-2.5c3.2-2.7,6.3-5.7,9.1-8.7c28.2-30.1,44.4-78.4,60.7-114c2.3-4.6,4.7-9.2,7.4-13.6
														c9.9-14.4,24.7-27.7,36.4-35.3C448.7,19.9,482.4,14.1,501.5,15.1z"/>
													<path id="Shape_27_" class="st6" d="M363.3,252.7c-1.5-1.2-3-2.6-4.5-3.9c-1.3-1.2-2.7-2.4-4.1-3.6
														c-3.9-3.5-8.9-8.5-13.9-13.6c-8.2-6.5-17.6-10.8-30.8-9.1c-11.9,1.5-21.8,5.8-29.6,10.7c-0.9,0.6-1.8,1.2-2.7,1.8
														c-0.3,0.2-0.7,0.5-1,0.7c0.2-0.3,0.5-0.6,0.7-0.8c0.9-0.9,1.7-1.9,2.6-2.8c1.1-1.1,2.3-2.2,3.7-3.4
														c9.9-8.2,25.9-21,43.7-16c8,2.2,13.5,11.5,15.3,13.9C351.6,238.6,355,245.4,363.3,252.7z"/>
													<path id="Shape_28_" class="st7" d="M365.4,563.9c-0.5,16.8-6.1,36.9-22.4,59.5c-2.3,3.1-4.8,6.3-7.4,9.5
														c-0.4,0.5-0.8,0.9-1.2,1.4c-10,11.8-31.2,39.3-49.9,69.2c-2.3,3.7-4.5,7.4-6.5,11.2c-1.7,3.1-3.2,6.3-4.7,9.5
														c-3.3,7.3-6.2,14.8-8.5,22.5c-1.2,3.7-2.2,7.5-3.1,11.3c-4.5,18.2-6.5,37.1-6.4,56.1c0,8.8-0.4,22.9,2.7,43.3
														c0.6,3.7,1.2,7.5,2.1,11.6c2.1,10.7,5.2,22.7,9.7,36.3c0.9,2.7,1.8,5.4,2.8,8.2c4.3,11.9,9.6,24.9,16.2,39
														c-34.7-22.6-67.7-47.6-98.4-75.2c-2.5-2.3-5.1-4.6-7.6-6.9c-9.5-8.8-18.8-17.9-27.8-27.3c-6.9-14.1-12.3-28-14.9-41
														c-8.7-41.9-3.1-84.4,22.2-128.7c22.9-40.1,36.1-73.6,37.6-106.9c0.3-6,0.1-12.7-0.4-19.7c-0.3-3.9-0.7-8-1.2-12
														c-2.4-20.2-6.6-41.6-9.7-58.2c-0.5-2.6-0.9-5.2-1.4-7.8c-0.6-3.5-1.1-7.1-1.6-10.6c-3.4-23.3-4.5-45.5-2.2-67
														c0.4-4,1-8,1.7-12c1.3-7.7,3.2-15.3,5.6-22.7c1.2-3.9,2.6-7.8,4.2-11.6c1.7-4.2,3.6-8.4,5.6-12.6
														c13.6,9.9,28.7,17.5,44.8,22.3c1.5,4.2,3.3,8.5,5.2,13c1.6,3.5,3.3,7.1,5.2,10.7c5.1,9.9,11.3,20.4,18.9,31.6
														c1.7,2.6,3.6,5.2,5.5,7.9c9.6,13.6,21.1,28.2,34.7,44c1.3,1.5,2.6,3.1,4,4.7c2.6,3.1,5.2,6.4,7.9,9.8
														c13.4,17.2,27.4,38.2,33.8,56.2c2.5,7.1,4.2,14.6,4.8,22.1C365.4,557.7,365.5,560.8,365.4,563.9z"/>
													<path id="Shape_29_" class="st10" d="M244.9,353.6c0.1,0.3,0.2,0.6,0.3,0.9c-16.1-4.9-31.2-12.4-44.8-22.3
														c10.6-21.4,26.4-42.4,48.9-63.6c-6.4,13-12,30-12,44.4c0,0.4,0,0.8,0,1.2v0c0,0.4,0,0.8,0,1.2c0,0.3,0,0.6,0,0.8
														c0,0,0,0.1,0,0.1c0,0.2,0,0.4,0,0.6c0,0.3,0,0.5,0,0.8c0,0.4,0,0.8,0.1,1.2c0,0.3,0,0.6,0.1,0.9c0,0.2,0,0.4,0,0.7
														c0,0.2,0,0.4,0,0.6c0,0.2,0,0.3,0,0.5c0,0.4,0.1,0.7,0.1,1.1c0,0.3,0,0.5,0.1,0.8c0,0.3,0,0.5,0.1,0.7
														c0,0.3,0.1,0.6,0.1,0.9c0,0.2,0,0.4,0.1,0.6c0,0.3,0.1,0.5,0.1,0.8c0,0.3,0.1,0.6,0.1,0.8c0.1,0.4,0.1,0.8,0.2,1.3
														c0,0.2,0.1,0.5,0.1,0.7c0.2,1,0.3,2,0.5,3c0,0.3,0.1,0.5,0.1,0.8c0,0.1,0,0.1,0,0.2c0.1,0.6,0.2,1.1,0.3,1.7
														c0,0.1,0,0.2,0.1,0.3c0.1,0.4,0.2,0.9,0.3,1.3c0,0.1,0,0.2,0.1,0.3c0.1,0.3,0.1,0.6,0.2,0.9c0.1,0.4,0.2,0.8,0.3,1.2
														c0.1,0.5,0.3,1.1,0.4,1.6c0.2,1,0.5,2,0.8,3c0.1,0.3,0.2,0.6,0.3,0.9c0.4,1.3,0.8,2.7,1.2,4c0.1,0.3,0.2,0.7,0.3,1
														c0.1,0.3,0.2,0.7,0.4,1.1c0.1,0.3,0.2,0.5,0.3,0.8C244.4,352,244.6,352.8,244.9,353.6z"/>
													<g id="Group-12" transform="translate(0.471222, 275.056795)">
														<path id="Shape_30_" class="st7" d="M89.6,0.2c0.1,2.4-1.3,4.7-3.4,5.8c-2.2,1.1-4.8,0.9-6.7-0.6
															C82.7,3.6,86.1,1.8,89.6,0.2z"/>
														<ellipse id="Oval" class="st7" cx="113.7" cy="10.8" rx="6.3" ry="6.3"/>
														<ellipse id="Oval_1_" class="st7" cx="144.2" cy="21.3" rx="6.3" ry="6.3"/>
														<path id="Shape_31_" class="st7" d="M169.9,27.5c-2.1,2.3-2.1,5.8-0.1,8.2c2,2.4,5.4,3,8.1,1.4L169.9,27.5z"/>
														<ellipse id="Oval_2_" class="st7" cx="71.7" cy="34.2" rx="6.3" ry="6.3"/>
														<ellipse id="Oval_3_" class="st7" cx="102.1" cy="44.6" rx="6.3" ry="6.3"/>
														<ellipse id="Oval_4_" class="st7" cx="132.6" cy="55.1" rx="6.3" ry="6.3"/>
														<ellipse id="Oval_5_" class="st7" cx="163.1" cy="65.5" rx="6.3" ry="6.3"/>
														<ellipse id="Oval_6_" class="st7" cx="193.6" cy="76" rx="6.3" ry="6.3"/>
														<path id="Shape_32_" class="st7" d="M35.6,59.6c-0.8,2.4-3,4.1-5.6,4.3c1.6-3.3,3.2-6.5,4.9-9.8
															C36,55.7,36.2,57.8,35.6,59.6z"/>
														<ellipse id="Oval_7_" class="st7" cx="60.1" cy="68" rx="6.3" ry="6.3"/>
														<ellipse id="Oval_8_" class="st7" cx="90.5" cy="78.4" rx="6.3" ry="6.3"/>
														<ellipse id="Oval_9_" class="st7" cx="121" cy="88.9" rx="6.3" ry="6.3"/>
														<ellipse id="Oval_10_" class="st7" cx="151.5" cy="99.3" rx="6.3" ry="6.3"/>
														<ellipse id="Oval_11_" class="st7" cx="182" cy="109.8" rx="6.3" ry="6.3"/>
														<path id="Shape_33_" class="st7" d="M24,93.4c-1.1,3.1-4.3,4.9-7.4,4.1c1.3-4,2.7-7.9,4.2-11.9
															C23.6,87,25,90.4,24,93.4z"/>
														<ellipse id="Oval_12_" class="st7" cx="48.5" cy="101.8" rx="6.3" ry="6.3"/>
														<ellipse id="Oval_13_" class="st7" cx="78.9" cy="112.2" rx="6.3" ry="6.3"/>
														<ellipse id="Oval_14_" class="st7" cx="109.4" cy="122.7" rx="6.3" ry="6.3"/>
														<ellipse id="Oval_15_" class="st7" cx="139.9" cy="133.1" rx="6.3" ry="6.3"/>
														<ellipse id="Oval_16_" class="st7" cx="170.4" cy="143.6" rx="6.3" ry="6.3"/>
														<path id="Shape_34_" class="st7" d="M12.4,127.2c-0.8,2.2-2.7,3.8-5,4.2c0.8-3.8,1.7-7.7,2.6-11.4
															C12.3,121.6,13.3,124.5,12.4,127.2z"/>
														<ellipse id="Oval_17_" class="st7" cx="36.9" cy="135.6" rx="6.3" ry="6.3"/>
														<ellipse id="Oval_18_" class="st7" cx="67.3" cy="146" rx="6.3" ry="6.3"/>
														<ellipse id="Oval_19_" class="st7" cx="97.8" cy="156.5" rx="6.3" ry="6.3"/>
														<ellipse id="Oval_20_" class="st7" cx="128.3" cy="166.9" rx="6.3" ry="6.3"/>
														<ellipse id="Oval_21_" class="st7" cx="158.8" cy="177.4" rx="6.3" ry="6.3"/>
														<ellipse id="Oval_22_" class="st7" cx="189.2" cy="187.8" rx="6.3" ry="6.3"/>
														<ellipse id="Oval_23_" class="st7" cx="25.3" cy="169.4" rx="6.3" ry="6.3"/>
														<ellipse id="Oval_24_" class="st7" cx="55.7" cy="179.8" rx="6.3" ry="6.3"/>
														<ellipse id="Oval_25_" class="st7" cx="86.2" cy="190.3" rx="6.3" ry="6.3"/>
														<ellipse id="Oval_26_" class="st7" cx="116.7" cy="200.7" rx="6.3" ry="6.3"/>
														<ellipse id="Oval_27_" class="st7" cx="147.2" cy="211.2" rx="6.3" ry="6.3"/>
														<ellipse id="Oval_28_" class="st7" cx="177.7" cy="221.6" rx="6.3" ry="6.3"/>
														<ellipse id="Oval_29_" class="st7" cx="13.7" cy="203.2" rx="6.3" ry="6.3"/>
														<ellipse id="Oval_30_" class="st7" cx="44.1" cy="213.6" rx="6.3" ry="6.3"/>
														<ellipse id="Oval_31_" class="st7" cx="74.6" cy="224.1" rx="6.3" ry="6.3"/>
														<ellipse id="Oval_32_" class="st7" cx="105.1" cy="234.5" rx="6.3" ry="6.3"/>
														<ellipse id="Oval_33_" class="st7" cx="135.6" cy="245" rx="6.3" ry="6.3"/>
														<ellipse id="Oval_34_" class="st7" cx="166.1" cy="255.4" rx="6.3" ry="6.3"/>
														<ellipse id="Oval_35_" class="st7" cx="196.5" cy="265.9" rx="6.3" ry="6.3"/>
														<path id="Shape_35_" class="st7" d="M1,243.2c2.6,0.4,5.2-0.8,6.5-3s1.1-5.1-0.5-7.2s-4.3-2.9-6.9-2.1L1,243.2z"/>
														<ellipse id="Oval_36_" class="st7" cx="32.6" cy="247.4" rx="6.3" ry="6.3"/>
														<ellipse id="Oval_37_" class="st7" cx="63" cy="257.9" rx="6.3" ry="6.3"/>
														<ellipse id="Oval_38_" class="st7" cx="93.5" cy="268.3" rx="6.3" ry="6.3"/>
														<ellipse id="Oval_39_" class="st7" cx="124" cy="278.8" rx="6.3" ry="6.3"/>
														<ellipse id="Oval_40_" class="st7" cx="154.5" cy="289.2" rx="6.3" ry="6.3"/>
														<ellipse id="Oval_41_" class="st7" cx="184.9" cy="299.7" rx="6.3" ry="6.3"/>
														<ellipse id="Oval_42_" class="st7" cx="21" cy="281.2" rx="6.3" ry="6.3"/>
														<ellipse id="Oval_43_" class="st7" cx="51.4" cy="291.7" rx="6.3" ry="6.3"/>
														<ellipse id="Oval_44_" class="st7" cx="81.9" cy="302.1" rx="6.3" ry="6.3"/>
														<ellipse id="Oval_45_" class="st7" cx="112.4" cy="312.6" rx="6.3" ry="6.3"/>
														<ellipse id="Oval_46_" class="st7" cx="142.9" cy="323" rx="6.3" ry="6.3"/>
														<ellipse id="Oval_47_" class="st7" cx="173.3" cy="333.5" rx="6.3" ry="6.3"/>
														<path id="Shape_36_" class="st7" d="M15.4,317.1c-0.4,1.1-1.1,2.1-2,2.8c-0.5-2.2-1-4.3-1.5-6.5c-0.3-1.5-0.7-3-1-4.6
															c0.2,0,0.4,0.1,0.6,0.2c1.6,0.5,2.9,1.7,3.6,3.2C15.8,313.8,15.9,315.5,15.4,317.1z"/>
														<ellipse id="Oval_48_" class="st7" cx="39.8" cy="325.5" rx="6.3" ry="6.3"/>
														<ellipse id="Oval_49_" class="st7" cx="70.3" cy="335.9" rx="6.3" ry="6.3"/>
														<ellipse id="Oval_50_" class="st7" cx="100.8" cy="346.4" rx="6.3" ry="6.3"/>
														<ellipse id="Oval_51_" class="st7" cx="131.3" cy="356.8" rx="6.3" ry="6.3"/>
														<ellipse id="Oval_52_" class="st7" cx="161.7" cy="367.3" rx="6.3" ry="6.3"/>
														<path id="Shape_37_" class="st7" d="M34.2,361.3c-1,3-4.2,4.8-7.3,4.1c-1.2-3.4-2.4-6.8-3.5-10.3c2-2.3,5.3-2.9,8-1.4
															C34,355.3,35.2,358.5,34.2,361.3L34.2,361.3z"/>
														<ellipse id="Oval_53_" class="st7" cx="58.7" cy="369.7" rx="6.3" ry="6.3"/>
														<ellipse id="Oval_54_" class="st7" cx="89.2" cy="380.2" rx="6.3" ry="6.3"/>
														<ellipse id="Oval_55_" class="st7" cx="119.7" cy="390.6" rx="6.3" ry="6.3"/>
														<ellipse id="Oval_56_" class="st7" cx="150.1" cy="401.1" rx="6.3" ry="6.3"/>
														<path id="Shape_38_" class="st7" d="M44.7,409.4c0.1,0,0.2,0.1,0.3,0.1c3.3,1.1,6.9-0.6,8-3.9c1.1-3.3-0.6-6.9-3.9-8
															s-6.9,0.6-8.1,3.9L44.7,409.4z"/>
														<ellipse id="Oval_57_" class="st7" cx="77.6" cy="414" rx="6.3" ry="6.3"/>
														<ellipse id="Oval_58_" class="st7" cx="108.1" cy="424.4" rx="6.3" ry="6.3"/>
														<ellipse id="Oval_59_" class="st7" cx="138.5" cy="434.9" rx="6.3" ry="6.3"/>
														<path id="Shape_39_" class="st7" d="M72,449.8c-0.7,1.9-2.2,3.4-4.1,4c-2.1-3.6-4.1-7.2-6.1-10.8
															c2.2-1.9,5.3-2.1,7.7-0.5C71.9,444.1,72.9,447.1,72,449.8z"/>
														<ellipse id="Oval_60_" class="st7" cx="96.5" cy="458.2" rx="6.3" ry="6.3"/>
														<ellipse id="Oval_61_" class="st7" cx="126.9" cy="468.7" rx="6.3" ry="6.3"/>
														<ellipse id="Oval_62_" class="st7" cx="115.4" cy="502.5" rx="6.3" ry="6.3"/>
														<path id="Shape_40_" class="st7" d="M140.2,548.8c-0.3,0.8-0.8,1.6-1.4,2.3c-2.8-3.1-5.6-6.3-8.3-9.5
															c2.2-1.6,5.3-1.6,7.5,0.1C140.2,543.3,141.1,546.2,140.2,548.8z"/>
														<ellipse id="Oval_63_" class="st10" cx="224" cy="86.4" rx="6.3" ry="6.3"/>
														<path id="Shape_41_" class="st10" d="M255.2,103.2c-2.7,0.3-5.2-1.2-6.4-3.6s-0.7-5.3,1.2-7.2
															C251.6,95.9,253.3,99.5,255.2,103.2z"/>
														<ellipse id="Oval_64_" class="st10" cx="212.4" cy="120.2" rx="6.3" ry="6.3"/>
														<ellipse id="Oval_65_" class="st10" cx="242.9" cy="130.7" rx="6.3" ry="6.3"/>
														<path id="Shape_42_" class="st10" d="M279.5,142.7c0,0.1-0.1,0.3-0.1,0.4c-1.1,3.1-4.4,4.9-7.6,4.1
															c-3.2-0.8-5.2-4-4.6-7.3c0.6-3.3,3.6-5.5,6.9-5.2L279.5,142.7z"/>
														<ellipse id="Oval_66_" class="st10" cx="200.8" cy="154" rx="6.3" ry="6.3"/>
														<ellipse id="Oval_67_" class="st10" cx="231.3" cy="164.5" rx="6.3" ry="6.3"/>
														<ellipse id="Oval_68_" class="st10" cx="261.8" cy="174.9" rx="6.3" ry="6.3"/>
														<ellipse id="Oval_69_" class="st10" cx="292.3" cy="185.4" rx="6.3" ry="6.3"/>
														<path id="Shape_43_" class="st10" d="M326.1,201.2c-2.7,1.7-6.3,1.1-8.3-1.4c-2-2.5-1.8-6.1,0.4-8.4
															C320.8,194.5,323.4,197.7,326.1,201.2z"/>
														<ellipse id="Oval_70_" class="st10" cx="219.7" cy="198.3" rx="6.3" ry="6.3"/>
														<ellipse id="Oval_71_" class="st10" cx="250.2" cy="208.7" rx="6.3" ry="6.3"/>
														<ellipse id="Oval_72_" class="st10" cx="280.7" cy="219.2" rx="6.3" ry="6.3"/>
														<ellipse id="Oval_73_" class="st10" cx="311.2" cy="229.6" rx="6.3" ry="6.3"/>
														<ellipse id="Oval_74_" class="st10" cx="341.6" cy="240" rx="6.3" ry="6.3"/>
														<ellipse id="Oval_75_" class="st10" cx="208.1" cy="232.1" rx="6.3" ry="6.3"/>
														<ellipse id="Oval_76_" class="st10" cx="238.6" cy="242.5" rx="6.3" ry="6.3"/>
														<ellipse id="Oval_77_" class="st10" cx="269.1" cy="253" rx="6.3" ry="6.3"/>
														<ellipse id="Oval_78_" class="st10" cx="299.6" cy="263.4" rx="6.3" ry="6.3"/>
														<ellipse id="Oval_79_" class="st10" cx="330" cy="273.8" rx="6.3" ry="6.3"/>
														<path id="Shape_44_" class="st10" d="M365,288.8c-2.5,2.4-6.4,2.4-8.9,0s-2.6-6.3-0.2-8.8c2.3-2.5,6.3-2.7,8.8-0.4
															L365,288.8z"/>
														<path id="Shape_45_" class="st10" d="M199.6,78c-0.6,1.8-2.1,3.3-3.9,3.9c-1.8,0.6-3.8,0.4-5.5-0.6
															c1.2-3.9,2.6-7.8,4.2-11.6c0.4,0.1,0.9,0.2,1.3,0.3c1.6,0.5,2.9,1.7,3.6,3.2C200,74.7,200.1,76.4,199.6,78z"/>
														<path id="Shape_46_" class="st10" d="M188,111.8c-0.8,2.2-2.7,3.9-5.1,4.2c0.4-4,1-8,1.7-12
															C187.6,105.4,189,108.8,188,111.8z"/>
														<path id="Shape_47_" class="st10" d="M186.7,193.6c0.2,0.1,0.3,0.1,0.5,0.2c2.9,1,6.1-0.2,7.6-2.9
															c1.5-2.7,0.8-6.1-1.6-8s-5.8-1.9-8.1,0.2L186.7,193.6z"/>
														<path id="Shape_48_" class="st10" d="M202.5,267.9c-0.6,1.7-1.9,3.1-3.5,3.8c-0.3-3.9-0.7-8-1.2-12
															c0.3,0.1,0.5,0.1,0.8,0.2c1.6,0.5,2.9,1.7,3.6,3.2S203.1,266.3,202.5,267.9z"/>
														<ellipse id="Oval_80_" class="st10" cx="227" cy="276.3" rx="6.3" ry="6.3"/>
														<ellipse id="Oval_81_" class="st10" cx="257.5" cy="286.8" rx="6.3" ry="6.3"/>
														<ellipse id="Oval_82_" class="st10" cx="288" cy="297.2" rx="6.3" ry="6.3"/>
														<ellipse id="Oval_83_" class="st10" cx="318.4" cy="307.7" rx="6.3" ry="6.3"/>
														<ellipse id="Oval_84_" class="st10" cx="348.9" cy="318.1" rx="6.3" ry="6.3"/>
														<ellipse id="Oval_85_" class="st10" cx="215.4" cy="310.1" rx="6.3" ry="6.3"/>
														<ellipse id="Oval_86_" class="st10" cx="245.9" cy="320.6" rx="6.3" ry="6.3"/>
														<ellipse id="Oval_87_" class="st10" cx="276.4" cy="331" rx="6.3" ry="6.3"/>
														<ellipse id="Oval_88_" class="st10" cx="306.8" cy="341.5" rx="6.3" ry="6.3"/>
														<path id="Shape_49_" class="st10" d="M342.5,348.3c-2.3,3.1-4.8,6.3-7.4,9.5c-2.5-1-4.2-3.4-4.1-6.2
															c0.1-2.7,1.9-5.1,4.5-5.8C338.1,345,340.9,346,342.5,348.3z"/>
														<ellipse id="Oval_89_" class="st10" cx="203.8" cy="343.9" rx="6.3" ry="6.3"/>
														<ellipse id="Oval_90_" class="st10" cx="234.3" cy="354.4" rx="6.3" ry="6.3"/>
														<ellipse id="Oval_91_" class="st10" cx="264.8" cy="364.8" rx="6.3" ry="6.3"/>
														<ellipse id="Oval_92_" class="st10" cx="295.2" cy="375.3" rx="6.3" ry="6.3"/>
														<ellipse id="Oval_93_" class="st10" cx="192.2" cy="377.7" rx="6.3" ry="6.3"/>
														<ellipse id="Oval_94_" class="st10" cx="222.7" cy="388.2" rx="6.3" ry="6.3"/>
														<ellipse id="Oval_95_" class="st10" cx="253.2" cy="398.6" rx="6.3" ry="6.3"/>
														<ellipse id="Oval_96_" class="st10" cx="283.6" cy="409.1" rx="6.3" ry="6.3"/>
														<ellipse id="Oval_97_" class="st10" cx="180.6" cy="411.5" rx="6.3" ry="6.3"/>
														<ellipse id="Oval_98_" class="st10" cx="211.1" cy="422" rx="6.3" ry="6.3"/>
														<ellipse id="Oval_99_" class="st10" cx="241.6" cy="432.4" rx="6.3" ry="6.3"/>
														<path id="Shape_50_" class="st10" d="M272.8,449.1c-3.1,0.4-6.1-1.6-6.9-4.6s0.7-6.3,3.7-7.5c2.9-1.2,6.3-0.1,7.9,2.6
															L272.8,449.1z"/>
														<ellipse id="Oval_100_" class="st10" cx="169" cy="445.3" rx="6.3" ry="6.3"/>
														<ellipse id="Oval_101_" class="st10" cx="199.5" cy="455.8" rx="6.3" ry="6.3"/>
														<ellipse id="Oval_102_" class="st10" cx="230" cy="466.2" rx="6.3" ry="6.3"/>
														<path id="Shape_51_" class="st10" d="M264.3,471.6c-1.2,3.7-2.2,7.5-3.1,11.3c-2.8,0.3-5.6-1.3-6.6-3.9
															s-0.2-5.7,2.1-7.4C258.9,469.9,262.1,469.9,264.3,471.6z"/>
														<ellipse id="Oval_103_" class="st10" cx="157.4" cy="479.1" rx="6.3" ry="6.3"/>
														<ellipse id="Oval_104_" class="st10" cx="187.9" cy="489.6" rx="6.3" ry="6.3"/>
														<ellipse id="Oval_105_" class="st10" cx="218.4" cy="500" rx="6.3" ry="6.3"/>
														<ellipse id="Oval_106_" class="st10" cx="248.9" cy="510.5" rx="6.3" ry="6.3"/>
														<ellipse id="Oval_107_" class="st10" cx="145.8" cy="512.9" rx="6.3" ry="6.3"/>
														<ellipse id="Oval_108_" class="st10" cx="176.3" cy="523.4" rx="6.3" ry="6.3"/>
														<ellipse id="Oval_109_" class="st10" cx="206.8" cy="533.8" rx="6.3" ry="6.3"/>
														<ellipse id="Oval_110_" class="st10" cx="237.3" cy="544.3" rx="6.3" ry="6.3"/>
														<ellipse id="Oval_111_" class="st10" cx="164.7" cy="557.2" rx="6.3" ry="6.3"/>
														<ellipse id="Oval_112_" class="st10" cx="195.2" cy="567.6" rx="6.3" ry="6.3"/>
														<ellipse id="Oval_113_" class="st10" cx="225.7" cy="578.1" rx="6.3" ry="6.3"/>
														<path id="Shape_52_" class="st10" d="M259.5,593.9c-2.4,1.5-5.6,1.2-7.7-0.7s-2.7-5-1.3-7.6c1.3-2.5,4.2-3.9,6.9-3.3
															C258,586,258.7,589.8,259.5,593.9z"/>
														<path id="Shape_53_" class="st10" d="M189.9,602.1c-2.5-2.3-5.1-4.6-7.6-6.9c2-0.4,4.1,0.2,5.6,1.5
															C189.4,598.1,190.1,600.1,189.9,602.1z"/>
														<ellipse id="Oval_114_" class="st10" cx="214.1" cy="611.9" rx="6.3" ry="6.3"/>
														<ellipse id="Oval_115_" class="st10" cx="244.5" cy="622.3" rx="6.3" ry="6.3"/>
														<path id="Shape_54_" class="st10" d="M272.1,638.4c-2.8-1.4-4.1-4.7-3.1-7.7c0.1-0.2,0.1-0.4,0.2-0.6
															C270.1,632.8,271.1,635.6,272.1,638.4z"/>
													</g>
												</g>
											</g>
										</g>
									</g>
								</g>
							</g>
						</g>
						<g id="Shape-Clipped" transform="translate(201.250000, 277.917391)">
							<path id="Shape_55_" class="st11" d="M0.5,0.8c0.2,0,0.4-0.2,0.4-0.4c0-0.2-0.2-0.4-0.4-0.4S0.1,0.3,0.1,0.5
								C0.1,0.7,0.3,0.8,0.5,0.8z"/>
						</g>
					</g>
				</g>
			</g>
		</g>
	</g>
</g>
</svg>
