<svg version="1.1" id="Layer_1" xmlns="http://www.w3.org/2000/svg" xmlns:xlink="http://www.w3.org/1999/xlink" x="0px" y="0px"
	 viewBox="0 0 40 40" style="enable-background:new 0 0 40 40;" xml:space="preserve">
<g id="Group">
	<polygon id="Rectangle" style="fill:#FFFFFF;fill-opacity:0;" points="0,0 40,0 40,40 0,40 			"/>
	<path id="Shape" style="fill:#FFFFFF;" d="M20,0C9,0,0,9,0,20s9,20,20,20s20-9,20-20c0-5.3-2.1-10.4-5.9-14.1S25.3,0,20,0z M14.7,25.5
				l-2.4-1v-8.7l2.4-1V25.5z M26.2,26.9c-0.5,0.4-1.1,0.7-1.7,0.9c-1.4,0.4-2.8,0.4-4.1,0c-0.6-0.2-1.2-0.5-1.7-0.9
				c-0.5-0.4-0.9-0.9-1.1-1.5c-0.3-0.6-0.4-1.3-0.4-2.1c0-0.5,0.1-0.9,0.2-1.4c0.1-0.4,0.4-0.8,0.6-1.1c0.3-0.3,0.6-0.6,0.9-0.8
				l0.2-0.1l2.2,0.9c-0.3,0.1-0.5,0.3-0.7,0.5c-0.2,0.2-0.4,0.5-0.6,0.8c-0.1,0.3-0.2,0.6-0.2,1c0,0.7,0.2,1.3,0.7,1.8
				c1.1,0.9,2.7,0.9,3.8,0c0.5-0.5,0.8-1.1,0.7-1.8c0-0.3-0.1-0.7-0.2-1c-0.1-0.3-0.3-0.6-0.6-0.8c-0.2-0.2-0.5-0.4-0.8-0.5
				c-0.3-0.1-0.5-0.1-0.8-0.2l-3-1.2c-0.6-0.2-1.1-0.6-1.5-1.2c-0.4-0.7-0.6-1.4-0.6-2.2c0-0.6,0.1-1.2,0.4-1.8
				c0.2-0.5,0.6-0.9,1-1.3c0.5-0.4,1-0.6,1.5-0.8c1.2-0.4,2.5-0.4,3.8,0c0.6,0.2,1.1,0.4,1.5,0.8c0.5,0.3,0.8,0.8,1.1,1.3
				c0.3,0.6,0.4,1.2,0.4,1.8c0,0.8-0.2,1.6-0.6,2.2c-0.2,0.4-0.6,0.7-0.9,0.9l-2.3-0.9c0.2-0.1,0.4-0.2,0.6-0.4
				c0.4-0.4,0.6-1,0.6-1.6c0-0.6-0.2-1.1-0.6-1.5c-0.4-0.4-1-0.7-1.6-0.6c-0.6,0-1.1,0.2-1.5,0.6c-0.4,0.4-0.6,1-0.6,1.5
				c0,0.3,0.1,0.6,0.2,0.9c0.1,0.3,0.3,0.5,0.5,0.7c0.2,0.2,4.7,2,5,2.1l0.1,0.1c0.3,0.2,0.7,0.5,0.9,0.8c0.3,0.3,0.5,0.7,0.6,1.1
				c0.2,0.4,0.2,0.9,0.2,1.4c0,0.7-0.1,1.4-0.4,2.1C27.1,26,26.7,26.5,26.2,26.9z"/>
</g>
</svg>
