<?xml version="1.0" encoding="utf-8"?>
<!-- Generator: Adobe Illustrator 21.1.0, SVG Export Plug-In . SVG Version: 6.00 Build 0)  -->
<svg version="1.1" id="Layer_1" xmlns="http://www.w3.org/2000/svg" xmlns:xlink="http://www.w3.org/1999/xlink" x="0px" y="0px"
	 viewBox="0 0 44 44" style="enable-background:new 0 0 44 44;" xml:space="preserve">
<style type="text/css">
	.st0{fill:#FFFFFF;fill-opacity:0;}
	.st1{fill:#FFFFFF;}
</style>
<title>social_dr</title>
<desc>Created with Sketch.</desc>
<g id="social_dr">
	<g>
		<rect id="Rectangle-22" y="0" class="st0" width="44" height="44"/>
		<path id="Combined-Shape" class="st1" d="M22,43c11.6,0,21-9.4,21-21S33.6,1,22,1S1,10.4,1,22S10.4,43,22,43z M22,44
			C9.8,44,0,34.2,0,22S9.8,0,22,0s22,9.8,22,22S34.2,44,22,44z M22,13.5c-4.7,0-8.5,3.8-8.5,8.5s3.8,8.5,8.5,8.5s8.5-3.8,8.5-8.5
			S26.7,13.5,22,13.5z M29.1,22c0,0.1,0,0.2,0,0.4c-1.5-0.1-3.1,0.1-4.7,0.6c-0.1-0.6-0.3-1.3-0.5-1.9c-0.1-0.4-0.2-0.7-0.4-1.1
			c1.6-0.7,2.9-1.6,3.9-2.6C28.4,18.6,29.1,20.2,29.1,22z M26.3,16.3c-0.8,0.9-2,1.6-3.4,2.3c-0.7-1.4-1.5-2.6-2.4-3.6
			c0.5-0.1,1-0.2,1.5-0.2C23.6,14.9,25.1,15.5,26.3,16.3z M19,15.6c1,0.9,1.8,2.2,2.5,3.6c-0.3,0.1-0.7,0.3-1.1,0.4
			c-1.9,0.6-3.7,0.8-5.3,0.7C15.7,18.2,17.1,16.5,19,15.6z M14.9,22c0-0.1,0-0.3,0-0.4c0.3,0,0.7,0,1,0c1.5,0,3.2-0.3,4.9-0.8
			c0.4-0.1,0.8-0.3,1.2-0.4c0.1,0.3,0.2,0.6,0.3,1c0.2,0.6,0.4,1.3,0.5,1.9c-2.5,0.9-4.7,2.2-6,3.7C15.7,25.7,14.9,23.9,14.9,22z
			 M18.1,27.9c1.1-1.2,3-2.4,5.1-3.1c0.2,1.6,0.1,3-0.2,4.3c-0.3,0-0.7,0.1-1,0.1C20.6,29.1,19.2,28.6,18.1,27.9z M24.6,28.6
			c0.2-1.3,0.2-2.8,0-4.3c1.5-0.4,2.9-0.6,4.3-0.6C28.3,26,26.7,27.8,24.6,28.6z"/>
	</g>
</g>
</svg>
