<?xml version="1.0" encoding="utf-8"?>
<!-- Generator: Adobe Illustrator 21.1.0, SVG Export Plug-In . SVG Version: 6.00 Build 0)  -->
<svg version="1.1" id="Layer_1" xmlns="http://www.w3.org/2000/svg" xmlns:xlink="http://www.w3.org/1999/xlink" x="0px" y="0px"
	 viewBox="0 0 44 44" style="enable-background:new 0 0 44 44;" xml:space="preserve">
<style type="text/css">
	.st0{fill:#FFFFFF;fill-opacity:0;}
	.st1{fill:#FFFFFF;}
</style>
<title>social_be</title>
<desc>Created with Sketch.</desc>
<g id="social_be">
	<g>
		<rect id="Rectangle-22" y="0" class="st0" width="44" height="44"/>
		<path id="Combined-Shape" class="st1" d="M22,43c11.6,0,21-9.4,21-21S33.6,1,22,1S1,10.4,1,22S10.4,43,22,43z M22,44
			C9.8,44,0,34.2,0,22S9.8,0,22,0s22,9.8,22,22S34.2,44,22,44z M22.9,24.3c0-1.4-0.7-2.5-2.1-2.9c1-0.5,1.5-1.2,1.5-2.4
			c0-2.2-1.7-2.8-3.6-2.8h-5.3v11.3h5.5C20.9,27.5,22.9,26.6,22.9,24.3z M15.9,18.2h2.3c0.9,0,1.7,0.3,1.7,1.3s-0.6,1.3-1.5,1.3
			h-2.5V18.2z M15.9,25.6v-3.1h2.7c1.1,0,1.8,0.5,1.8,1.6s-0.8,1.5-1.8,1.5H15.9z M27.8,27.7c2,0,3.2-0.9,3.8-2.7h-2
			c-0.2,0.7-1.1,1.1-1.8,1.1c-1.3,0-2-0.8-2-2.1h5.9c0-0.1,0-0.3,0-0.4c0-2.4-1.4-4.4-4-4.4c-2.5,0-4.2,1.9-4.2,4.3
			C23.6,26,25.2,27.7,27.8,27.7z M27.7,20.8c1.1,0,1.7,0.7,1.8,1.7h-3.7C25.9,21.5,26.7,20.8,27.7,20.8z M25.4,16.8V18H30v-1.1h-4.6
			V16.8z"/>
	</g>
</g>
</svg>
