<?xml version="1.0" encoding="utf-8"?>
<!-- Generator: Adobe Illustrator 21.1.0, SVG Export Plug-In . SVG Version: 6.00 Build 0)  -->
<svg version="1.1" id="Layer_1" xmlns="http://www.w3.org/2000/svg" xmlns:xlink="http://www.w3.org/1999/xlink" x="0px" y="0px"
	 viewBox="0 0 44 44" style="enable-background:new 0 0 44 44;" xml:space="preserve">
<style type="text/css">
	.st0{fill:#FFFFFF;fill-opacity:0;}
	.st1{fill:#FFFFFF;}
</style>
<title>social_in</title>
<desc>Created with Sketch.</desc>
<g id="social_in">
	<g>
		<rect id="Rectangle-22" y="0" class="st0" width="44" height="44"/>
		<path class="st1" d="M22,43c11.6,0,21-9.4,21-21S33.6,1,22,1S1,10.4,1,22S10.4,43,22,43z M22,44C9.8,44,0,34.2,0,22S9.8,0,22,0
			s22,9.8,22,22S34.2,44,22,44z M25,14h-6c-2.8,0-5,2.2-5,5v6c0,2.8,2.2,5,5,5h6c2.8,0,5-2.2,5-5v-6C30,16.2,27.8,14,25,14z
			 M28.5,25c0,1.9-1.6,3.5-3.5,3.5h-6c-1.9,0-3.5-1.6-3.5-3.5v-6c0-1.9,1.6-3.5,3.5-3.5h6c1.9,0,3.5,1.6,3.5,3.5V25z M22,18
			c-2.2,0-4,1.8-4,4s1.8,4,4,4s4-1.8,4-4S24.2,18,22,18z M22,24.5c-1.4,0-2.5-1.1-2.5-2.5s1.1-2.5,2.5-2.5s2.5,1.1,2.5,2.5
			S23.4,24.5,22,24.5z"/>
	</g>
</g>
</svg>
