<?xml version="1.0" encoding="utf-8"?>
<!-- Generator: Adobe Illustrator 21.1.0, SVG Export Plug-In . SVG Version: 6.00 Build 0)  -->
<svg version="1.1" id="Layer_1" xmlns="http://www.w3.org/2000/svg" xmlns:xlink="http://www.w3.org/1999/xlink" x="0px" y="0px"
	 viewBox="0 0 44 44" style="enable-background:new 0 0 44 44;" xml:space="preserve">
<style type="text/css">
	.st0{fill:#FFFFFF;fill-opacity:0;}
	.st1{fill:#FFFFFF;}
</style>
<title>social_fb</title>
<desc>Created with Sketch.</desc>
<g id="social_fb">
	<g>
		<rect id="Rectangle-22" y="0" class="st0" width="44" height="44"/>
		<path class="st1" d="M22,44C9.8,44,0,34.2,0,22S9.8,0,22,0s22,9.8,22,22S34.2,44,22,44z M22,43c11.6,0,21-9.4,21-21S33.6,1,22,1
			S1,10.4,1,22S10.4,43,22,43z M22.4,30h-2.9v-7.3H17v-2.8h2.5v-2.1c0-2.4,1.5-3.8,3.7-3.8c1,0,1.9,0.1,2.2,0.1v2.5h-1.5
			c-1.2,0-1.4,0.6-1.4,1.4v1.8h2.8l-0.4,2.8h-2.4V30H22.4z"/>
	</g>
</g>
</svg>
