<?xml version="1.0" encoding="UTF-8" standalone="no"?>
<svg width="96px" height="24px" viewBox="0 0 96 24" version="1.1" xmlns="http://www.w3.org/2000/svg" xmlns:xlink="http://www.w3.org/1999/xlink">
    <!-- Generator: Sketch 50.2 (55047) - http://www.bohemiancoding.com/sketch -->
    <title>ATOM-logo</title>
    <desc>Created with Sketch.</desc>
    <defs></defs>
    <g id="ATOM-logo" stroke="none" stroke-width="1" fill="none" fill-rule="evenodd">
        <rect id="Rectangle-2" fill="#FFFFFF" opacity="0" x="0" y="0" width="96" height="24"></rect>
        <path d="M17.704,23 C17.4693322,22.2319962 17.2080014,21.4426707 16.92,20.632 C16.6319986,19.8213293 16.3493347,19.0106707 16.072,18.2 L7.432,18.2 C7.15466528,19.0106707 6.87200144,19.8213293 6.584,20.632 C6.29599856,21.4426707 6.03466784,22.2319962 5.8,23 L0.616,23 C1.44800416,20.6106547 2.2373296,18.4026768 2.984,16.376 C3.7306704,14.3493232 4.46132976,12.440009 5.176,10.648 C5.89067024,8.85599104 6.5946632,7.15467472 7.288,5.544 C7.9813368,3.93332528 8.7013296,2.36000768 9.448,0.824 L14.216,0.824 C14.941337,2.36000768 15.6559965,3.93332528 16.36,5.544 C17.0640035,7.15467472 17.7733298,8.85599104 18.488,10.648 C19.2026702,12.440009 19.9333296,14.3493232 20.68,16.376 C21.4266704,18.4026768 22.2159958,20.6106547 23.048,23 L17.704,23 Z M11.72,5.848 C11.6133328,6.1680016 11.4533344,6.60533056 11.24,7.16 C11.0266656,7.71466944 10.7813347,8.35466304 10.504,9.08 C10.2266653,9.80533696 9.92266832,10.605329 9.592,11.48 C9.26133168,12.354671 8.92533504,13.2719952 8.584,14.232 L14.888,14.232 C14.546665,13.2719952 14.2160016,12.354671 13.896,11.48 C13.5759984,10.605329 13.2720014,9.80533696 12.984,9.08 C12.6959986,8.35466304 12.4453344,7.71466944 12.232,7.16 C12.0186656,6.60533056 11.8480006,6.1680016 11.72,5.848 Z M42.376,0.824 L42.376,5.08 L35.688,5.08 L35.688,23 L30.696,23 L30.696,5.08 L24.008,5.08 L24.008,0.824 L42.376,0.824 Z M49.768,11.896 C49.768,12.9840054 49.901332,13.965329 50.168,14.84 C50.434668,15.714671 50.8186642,16.4666635 51.32,17.096 C51.8213358,17.7253365 52.434663,18.210665 53.16,18.552 C53.885337,18.893335 54.7173286,19.064 55.656,19.064 C56.5733379,19.064 57.3999963,18.893335 58.136,18.552 C58.8720037,18.210665 59.4906642,17.7253365 59.992,17.096 C60.4933358,16.4666635 60.877332,15.714671 61.144,14.84 C61.410668,13.965329 61.544,12.9840054 61.544,11.896 C61.544,10.8079946 61.410668,9.82133776 61.144,8.936 C60.877332,8.05066224 60.4933358,7.29333648 59.992,6.664 C59.4906642,6.03466352 58.8720037,5.54933504 58.136,5.208 C57.3999963,4.86666496 56.5733379,4.696 55.656,4.696 C54.7173286,4.696 53.885337,4.87199824 53.16,5.224 C52.434663,5.57600176 51.8213358,6.06666352 51.32,6.696 C50.8186642,7.32533648 50.434668,8.08266224 50.168,8.968 C49.901332,9.85333776 49.768,10.829328 49.768,11.896 Z M66.696,11.896 C66.696,13.7946762 66.4133362,15.4639928 65.848,16.904 C65.2826638,18.3440072 64.5093382,19.5493285 63.528,20.52 C62.5466618,21.4906715 61.3786734,22.2213309 60.024,22.712 C58.6693266,23.2026691 57.2133411,23.448 55.656,23.448 C54.1413258,23.448 52.7120067,23.2026691 51.368,22.712 C50.0239933,22.2213309 48.8506717,21.4906715 47.848,20.52 C46.8453283,19.5493285 46.0560029,18.3440072 45.48,16.904 C44.9039971,15.4639928 44.616,13.7946762 44.616,11.896 C44.616,9.99732384 44.9146637,8.3280072 45.512,6.888 C46.1093363,5.4479928 46.9146616,4.23733824 47.928,3.256 C48.9413384,2.27466176 50.11466,1.53866912 51.448,1.048 C52.78134,0.55733088 54.1839926,0.312 55.656,0.312 C57.1706742,0.312 58.5999933,0.55733088 59.944,1.048 C61.2880067,1.53866912 62.4613283,2.27466176 63.464,3.256 C64.4666717,4.23733824 65.2559971,5.4479928 65.832,6.888 C66.4080029,8.3280072 66.696,9.99732384 66.696,11.896 Z M76.744,0.824 C77.1280019,1.52800352 77.5706642,2.39732816 78.072,3.432 C78.5733358,4.46667184 79.0959973,5.58666064 79.64,6.792 C80.1840027,7.99733936 80.722664,9.22932704 81.256,10.488 C81.789336,11.746673 82.2906643,12.9306611 82.76,14.04 C83.2293357,12.9306611 83.730664,11.746673 84.264,10.488 C84.797336,9.22932704 85.3359973,7.99733936 85.88,6.792 C86.4240027,5.58666064 86.9466642,4.46667184 87.448,3.432 C87.9493358,2.39732816 88.3919981,1.52800352 88.776,0.824 L93.32,0.824 C93.5333344,2.29600736 93.7306658,3.94399088 93.912,5.768 C94.0933342,7.59200912 94.2533326,9.4906568 94.392,11.464 C94.5306674,13.4373432 94.6586661,15.4159901 94.776,17.4 C94.8933339,19.3840099 94.9946662,21.2506579 95.08,23 L90.216,23 C90.1519997,20.8453226 90.0666672,18.4986794 89.96,15.96 C89.8533328,13.4213206 89.6933344,10.8613462 89.48,8.28 C89.0959981,9.17600448 88.6693357,10.1679946 88.2,11.256 C87.7306643,12.3440054 87.266669,13.4319946 86.808,14.52 C86.349331,15.6080054 85.9066688,16.647995 85.48,17.64 C85.0533312,18.632005 84.6906682,19.4799965 84.392,20.184 L80.904,20.184 C80.6053318,19.4799965 80.2426688,18.632005 79.816,17.64 C79.3893312,16.647995 78.946669,15.6080054 78.488,14.52 C78.029331,13.4319946 77.5653357,12.3440054 77.096,11.256 C76.6266643,10.1679946 76.2000019,9.17600448 75.816,8.28 C75.6026656,10.8613462 75.4426672,13.4213206 75.336,15.96 C75.2293328,18.4986794 75.1440003,20.8453226 75.08,23 L70.216,23 C70.3013338,21.2506579 70.4026661,19.3840099 70.52,17.4 C70.6373339,15.4159901 70.7653326,13.4373432 70.904,11.464 C71.0426674,9.4906568 71.2026658,7.59200912 71.384,5.768 C71.5653342,3.94399088 71.7626656,2.29600736 71.976,0.824 L76.744,0.824 Z" id="ATOM" fill="#FFFFFF"></path>
    </g>
</svg>