<svg xmlns="http://www.w3.org/2000/svg" width="1920" height="1600" viewBox="0 0 1920 1600">
    <g fill="none" fill-rule="evenodd">
        <path fill="#0333E9" fill-rule="nonzero" d="M1389.628 419.939c98.643 26.716 208.217 55.467 314.803 83.317 71.059 20.425 143.734 41.597 215.569 62.95V1600c-316.42-66.064-605.784-124.869-868.093-176.413-88.675-17.425-264.256-68.822-559.309 0-138.672 32.346-383.576 68.429-492.598-20.741V255.736c50.95 59.76 180.99 74.854 273.965 70.41 95.853-4.591 189.151-24.468 282.796-39.136 43.609-6.831 87.645-12.916 132.156-15.12 50.36-2.483 96.408 3.471 144.733 14.043 80.061 17.543 310.94 72.804 555.978 134.006zM1920 475.41c-118.674-70.013-200.248-136.7-196.121-188.401C1730.937 198.6 1826.359 94.97 1920 0v475.41z"/>
    </g>
</svg>
